<?xml version="1.0" encoding="utf-8"?>
<!-- Generator: Adobe Illustrator 14.0.0, SVG Export Plug-In  -->
<!DOCTYPE svg PUBLIC "-//W3C//DTD SVG 1.1//EN" "http://www.w3.org/Graphics/SVG/1.1/DTD/svg11.dtd" [
	<!ENTITY ns_flows "http://ns.adobe.com/Flows/1.0/">
]>
<svg version="1.1"
	 xmlns="http://www.w3.org/2000/svg" xmlns:xlink="http://www.w3.org/1999/xlink" xmlns:a="http://ns.adobe.com/AdobeSVGViewerExtensions/3.0/"
	 x="0px" y="0px" width="1440px" height="600px" viewBox="111.827 19.452 1440 600"
	 enable-background="new 111.827 19.452 1440 600" xml:space="preserve">
<defs>
</defs>
<path opacity="0.2" fill="none" stroke="#0A2F66" stroke-width="3.8976" stroke-linecap="round" stroke-linejoin="round" stroke-miterlimit="10" d="
	M129.822,587.442l2.438,2.309c5.043,4.776,11.643,7.41,18.578,7.41c7.143,0,13.881-2.765,18.969-7.783l2.146-2.116l2.908,0.785
	c3.152,0.851,6.398,1.283,9.654,1.283c20.385,0,36.969-16.583,36.969-36.971c0-16.303-10.924-30.893-26.564-35.472l-2.752-0.808
	l-0.811-2.752c-4.172-14.197-17.424-24.113-32.23-24.113c-2.756,0-5.51,0.341-8.188,1.011l-3.797,0.954l-1.998-3.368
	c-7.879-13.309-22.365-21.576-37.799-21.576c-21.672,0-39.898,15.504-43.342,36.864l-0.723,4.493l-5.096-0.094
	c-16.445,0-30.723,12.233-33.207,28.461l-0.578,3.793l-3.793,0.598c-10.811,1.703-18.658,10.9-18.658,21.864
	c0,11.565,8.768,21.292,19.996,22.224l77.402-0.084l1.389,1.02c4.66,3.421,10.182,5.229,15.977,5.229
	c3.439,0,6.803-0.646,9.992-1.918L129.822,587.442z"/>
<path opacity="0.2" fill="none" stroke="#0A2F66" stroke-width="3.2733" stroke-linecap="round" stroke-linejoin="round" stroke-miterlimit="10" d="
	M1233.881,589.231l1.76,2.172c7.34,9.061,18.223,14.257,29.857,14.257c8.639,0,16.801-2.81,23.607-8.125l2.6-2.028l2.564,2.07
	c5.012,4.042,11.064,6.179,17.506,6.179c8.492,0,16.422-3.806,21.756-10.441l1.461-1.817l2.314,0.302
	c1.023,0.135,2.037,0.204,3.008,0.204c12.74,0,23.105-10.368,23.105-23.109c0-11.764-8.805-21.631-20.477-22.952l-2.768-0.312
	l-0.76-2.679c-3.83-13.466-16.285-22.871-30.295-22.871c-2.883,0-5.762,0.4-8.555,1.187l-3.225,0.907l-1.568-2.959
	c-4.396-8.28-12.943-13.427-22.307-13.427c-10.348,0-19.537,6.204-23.41,15.804l-1.172,2.902l-3.111-0.325
	c-7.982-0.832-15.176,4.248-17.225,11.764l-0.863,3.168l-3.475-0.117c-0.199-0.008-0.402-0.014-0.605-0.014
	c-14.391,0-26.102,11.708-26.102,26.1c0,14.394,11.711,26.104,26.102,26.104c2.584,0,5.141-0.381,7.6-1.128L1233.881,589.231z"/>
<path opacity="0.2" fill="none" stroke="#0A2F66" stroke-width="1.8058" stroke-linecap="round" stroke-linejoin="round" stroke-miterlimit="10" d="
	M1099.475,485.599c-8.656,0-15.697,7.041-15.697,15.697s7.041,15.697,15.697,15.697h90.055c11.102,0,20.131-9.031,20.131-20.133
	c0-7.686-4.279-14.592-11.168-18.025l-1.9-0.947l0.096-2.121c0.008-0.174,0.014-0.348,0.014-0.525
	c0-6.174-5.021-11.195-11.195-11.195c-1.861,0-3.705,0.467-5.328,1.35l-3.119,1.691l-1.426-3.248
	c-3.828-8.719-12.449-14.352-21.963-14.352c-9.891,0-18.639,5.941-22.289,15.139l-1.137,2.859l-2.92-0.967
	c-1.859-0.613-3.791-0.926-5.744-0.926c-9.555,0-17.555,7.461-18.213,16.984l-0.215,3.137l-3.303-0.105
	C1099.725,485.604,1099.602,485.599,1099.475,485.599z"/>
<path opacity="0.2" fill="none" stroke="#0A2F66" stroke-width="2.4608" stroke-linecap="round" stroke-linejoin="round" stroke-miterlimit="10" d="
	M1393.189,107.333l1.539,1.458c3.184,3.016,7.35,4.679,11.729,4.679c4.51,0,8.764-1.746,11.977-4.914l1.355-1.336l1.836,0.495
	c1.99,0.537,4.039,0.811,6.096,0.811c12.869,0,23.34-10.47,23.34-23.342c0-10.293-6.896-19.504-16.771-22.396l-1.738-0.51
	l-0.512-1.737c-2.633-8.963-11-15.224-20.348-15.224c-1.74,0-3.479,0.215-5.17,0.638l-2.396,0.603l-1.262-2.127
	c-4.975-8.402-14.121-13.622-23.865-13.622c-13.682,0-25.189,9.789-27.363,23.275l-0.457,2.836l-3.217-0.06
	c-10.383,0-19.396,7.725-20.965,17.969l-0.367,2.396l-2.393,0.378c-6.826,1.075-11.781,6.882-11.781,13.804
	c0,7.302,5.535,13.442,12.625,14.031l48.869-0.054l0.877,0.645c2.941,2.159,6.428,3.301,10.086,3.301
	c2.172,0,4.295-0.407,6.309-1.211L1393.189,107.333z"/>
<path opacity="0.2" fill="none" stroke="#0A2F66" stroke-width="2.7555" stroke-linecap="round" stroke-linejoin="round" stroke-miterlimit="10" d="
	M1537.014,346.776l1.725,1.635c3.564,3.377,8.23,5.238,13.133,5.238c5.051,0,9.812-1.957,13.412-5.502l1.516-1.496l2.057,0.555
	c2.23,0.6,4.523,0.906,6.826,0.906c14.41,0,26.137-11.725,26.137-26.139c0-11.523-7.723-21.84-18.783-25.076l-1.943-0.572
	l-0.574-1.945c-2.947-10.037-12.316-17.047-22.785-17.047c-1.947,0-3.895,0.24-5.789,0.715l-2.684,0.674l-1.412-2.381
	c-5.57-9.41-15.812-15.254-26.725-15.254c-15.322,0-28.207,10.961-30.643,26.062l-0.512,3.176l-3.602-0.066
	c-11.627,0-21.719,8.65-23.475,20.121l-0.41,2.684l-2.682,0.422c-7.643,1.205-13.189,7.705-13.189,15.457
	c0,8.176,6.197,15.053,14.135,15.713l54.723-0.061l0.982,0.721c3.295,2.42,7.197,3.697,11.295,3.697
	c2.432,0,4.809-0.455,7.064-1.355L1537.014,346.776z"/>
<path opacity="0.2" fill="none" stroke="#0A2F66" stroke-width="1.8058" stroke-linecap="round" stroke-linejoin="round" stroke-miterlimit="10" d="
	M1219.334,426.028l1.479,1.824c6.168,7.615,15.316,11.984,25.094,11.984c7.26,0,14.121-2.363,19.844-6.83l2.184-1.703l2.156,1.738
	c4.211,3.398,9.299,5.195,14.713,5.195c7.137,0,13.803-3.199,18.285-8.777l1.229-1.527l1.945,0.254
	c0.863,0.113,1.713,0.172,2.527,0.172c10.711,0,19.422-8.715,19.422-19.426c0-9.887-7.4-18.18-17.211-19.289l-2.326-0.262
	l-0.639-2.252c-3.219-11.318-13.689-19.225-25.461-19.225c-2.426,0-4.844,0.338-7.193,0.996l-2.709,0.766l-1.318-2.488
	c-3.695-6.961-10.879-11.285-18.748-11.285c-8.697,0-16.422,5.215-19.678,13.283l-0.982,2.439l-2.617-0.273
	c-6.707-0.699-12.756,3.57-14.477,9.887l-0.727,2.662l-2.92-0.098c-0.168-0.006-0.338-0.012-0.508-0.012
	c-12.096,0-21.939,9.842-21.939,21.938c0,12.098,9.844,21.939,21.939,21.939c2.17,0,4.318-0.316,6.387-0.945L1219.334,426.028z"/>
<path opacity="0.2" fill="none" stroke="#0A2F66" stroke-width="3.4787" stroke-linecap="round" stroke-linejoin="round" stroke-miterlimit="10" d="
	M284.666,240.394l1.869,2.307c7.799,9.631,19.365,15.152,31.73,15.152c9.18,0,17.855-2.986,25.09-8.635l2.76-2.156l2.727,2.199
	c5.326,4.297,11.76,6.568,18.604,6.568c9.025,0,17.453-4.045,23.121-11.098l1.553-1.932l2.459,0.32
	c1.09,0.145,2.166,0.217,3.197,0.217c13.541,0,24.555-11.018,24.555-24.559c0-12.502-9.355-22.988-21.76-24.393l-2.941-0.33
	l-0.809-2.848c-4.07-14.311-17.307-24.307-32.193-24.307c-3.064,0-6.125,0.426-9.094,1.262l-3.426,0.965l-1.668-3.145
	c-4.672-8.801-13.756-14.27-23.705-14.27c-10.998,0-20.764,6.594-24.881,16.795l-1.242,3.084l-3.307-0.344
	c-8.484-0.887-16.129,4.514-18.307,12.5l-0.918,3.367l-3.691-0.125c-0.213-0.008-0.428-0.014-0.645-0.014
	c-15.295,0-27.74,12.441-27.74,27.736c0,15.297,12.445,27.742,27.74,27.742c2.746,0,5.463-0.404,8.076-1.197L284.666,240.394z"/>
<path opacity="0.2" fill="none" stroke="#0A2F66" stroke-width="1.1236" stroke-linecap="round" stroke-linejoin="round" stroke-miterlimit="10" d="
	M1046.041,152.731l0.604,0.746c2.52,3.109,6.256,4.893,10.248,4.893c2.967,0,5.768-0.965,8.105-2.789l0.891-0.695l0.881,0.709
	c1.719,1.389,3.797,2.123,6.008,2.123c2.916,0,5.639-1.307,7.469-3.586l0.502-0.623l0.795,0.104c0.352,0.047,0.699,0.07,1.031,0.07
	c4.375,0,7.932-3.559,7.932-7.934c0-4.037-3.021-7.424-7.029-7.877l-0.949-0.107l-0.262-0.92c-1.314-4.623-5.59-7.852-10.398-7.852
	c-0.99,0-1.979,0.139-2.938,0.408l-1.105,0.311l-0.539-1.016c-1.51-2.842-4.443-4.607-7.656-4.607c-3.553,0-6.707,2.129-8.037,5.424
	l-0.4,0.996l-1.068-0.111c-2.74-0.285-5.211,1.459-5.914,4.037l-0.295,1.088l-1.193-0.039c-0.068-0.004-0.139-0.006-0.207-0.006
	c-4.941,0-8.961,4.02-8.961,8.959c0,4.941,4.02,8.961,8.961,8.961c0.887,0,1.764-0.131,2.607-0.387L1046.041,152.731z"/>
<path opacity="0.2" fill="none" stroke="#0A2F66" stroke-width="2.9547" stroke-linecap="round" stroke-linejoin="round" stroke-miterlimit="10" d="
	M929.779,110.924l3.246,2.59c5.473,4.374,15.164,9.047,25.941,9.047c10.35-0.001,20.082-4.17,28.934-12.392l1.377-1.277
	l37.791,0.059c10.205-0.849,18.176-9.69,18.176-20.207c0-9.969-7.133-18.329-16.963-19.879l-3.447-0.546l-0.527-3.448
	c-2.26-14.75-15.238-25.876-30.191-25.876l-4.633,0.085l-0.66-4.083c-3.129-19.423-19.703-33.519-39.402-33.519
	c-14.035,0-27.207,7.515-34.373,19.617l-1.812,3.062l-3.455-0.865c-2.432-0.61-4.938-0.92-7.445-0.92
	c-13.461,0-25.512,9.017-29.301,21.925l-0.736,2.502l-2.504,0.731c-14.221,4.165-24.154,17.43-24.154,32.255
	c0,18.533,15.08,33.612,33.611,33.612c2.961,0,5.914-0.394,8.779-1.165l2.646-0.715l1.951,1.924
	c4.627,4.562,10.754,7.077,17.248,7.077c6.307,0,12.303-2.393,16.889-6.738L929.779,110.924z"/>
<path opacity="0.2" fill="none" stroke="#0A2F66" stroke-width="3.1811" stroke-linecap="round" stroke-linejoin="round" stroke-miterlimit="10" d="
	M922.6,456.821l3.494,2.787c5.893,4.711,16.324,9.74,27.928,9.74c11.143,0,21.621-4.488,31.15-13.342l1.482-1.373l40.686,0.062
	c10.986-0.912,19.568-10.434,19.568-21.756c0-10.73-7.682-19.732-18.262-21.4l-3.711-0.588l-0.57-3.711
	c-2.434-15.881-16.406-27.859-32.504-27.859l-4.986,0.09l-0.713-4.393c-3.367-20.912-21.209-36.088-42.42-36.088
	c-15.109,0-29.287,8.09-37.004,21.121l-1.951,3.295l-3.721-0.93c-2.619-0.658-5.316-0.99-8.016-0.99
	c-14.492,0-27.465,9.707-31.545,23.602l-0.793,2.695l-2.693,0.789c-15.311,4.482-26.006,18.764-26.006,34.725
	c0,19.951,16.232,36.186,36.186,36.186c3.188,0,6.367-0.424,9.453-1.256l2.848-0.768l2.1,2.07c4.982,4.912,11.578,7.619,18.57,7.619
	c6.787,0,13.246-2.576,18.182-7.254L922.6,456.821z"/>
<path opacity="0.2" fill="none" stroke="#0A2F66" stroke-width="1.2582" stroke-linecap="round" stroke-linejoin="round" stroke-miterlimit="10" d="
	M415.66,80.641l1.383,1.103c2.33,1.863,6.457,3.853,11.047,3.853c4.406-0.001,8.551-1.775,12.32-5.277l0.586-0.543l16.092,0.024
	c4.346-0.36,7.74-4.126,7.74-8.604c0-4.244-3.037-7.805-7.223-8.465l-1.469-0.232l-0.225-1.468
	c-0.963-6.281-6.488-11.019-12.855-11.019l-1.973,0.036l-0.281-1.738c-1.332-8.271-8.391-14.273-16.779-14.273
	c-5.977,0-11.584,3.2-14.637,8.354l-0.771,1.304l-1.471-0.368c-1.037-0.26-2.104-0.392-3.17-0.392
	c-5.732,0-10.863,3.839-12.479,9.335l-0.312,1.065l-1.066,0.312c-6.055,1.773-10.285,7.422-10.285,13.734
	c0,7.892,6.42,14.312,14.312,14.312c1.26,0,2.518-0.167,3.738-0.496l1.127-0.304l0.83,0.819c1.971,1.942,4.58,3.013,7.346,3.013
	c2.684,0,5.238-1.019,7.191-2.869L415.66,80.641z"/>
<path opacity="0.2" fill="none" stroke="#0A2F66" stroke-width="1.8058" stroke-linecap="round" stroke-linejoin="round" stroke-miterlimit="10" d="
	M1231.77,171.12l1.982,1.582c3.348,2.674,9.268,5.529,15.855,5.529c6.324,0,12.273-2.549,17.684-7.574l0.84-0.781l23.098,0.037
	c6.238-0.518,11.109-5.924,11.109-12.35c0-6.092-4.361-11.203-10.367-12.148l-2.109-0.336l-0.32-2.107
	c-1.383-9.014-9.312-15.814-18.453-15.814l-2.83,0.051l-0.404-2.492c-1.912-11.871-12.041-20.486-24.082-20.486
	c-8.576,0-16.625,4.592-21.006,11.99l-1.107,1.869l-2.111-0.529c-1.488-0.371-3.02-0.561-4.553-0.561
	c-8.225,0-15.592,5.512-17.908,13.398l-0.449,1.529l-1.529,0.447c-8.691,2.547-14.762,10.654-14.762,19.713
	c0,11.326,9.215,20.543,20.541,20.543c1.811,0,3.615-0.24,5.367-0.713l1.615-0.434l1.191,1.174
	c2.832,2.787,6.574,4.324,10.543,4.324c3.854,0,7.52-1.459,10.322-4.117L1231.77,171.12z"/>
<path opacity="0.2" fill="none" stroke="#0A2F66" stroke-width="3.3114" stroke-linecap="round" stroke-linejoin="round" stroke-miterlimit="10" d="
	M953.277,576.92l1.824,1.708c5.287,4.96,12.188,7.69,19.43,7.69c8.137,0,15.9-3.506,21.303-9.617l2.205-2.494l2.523,2.175
	c2.906,2.504,6.732,3.883,10.775,3.883c4.234,0,8.07-1.523,10.521-4.177l1.002-1.084h12.086c8.457,0,15.338-6.881,15.338-15.339
	c0-8.459-6.881-15.34-15.338-15.34c-0.865,0-1.75,0.078-2.631,0.231l-3.883,0.675l-0.066-3.941
	c-0.191-11.521-9.723-20.895-21.246-20.895c-2.871,0-5.658,0.563-8.283,1.674l-3.5,1.481l-1.055-3.65
	c-3.326-11.52-14.027-19.563-26.025-19.563c-7.861,0-15.328,3.418-20.486,9.379l-1.428,1.647l-2.088-0.622
	c-1.408-0.421-2.869-0.635-4.344-0.635c-8.348,0-15.143,6.793-15.143,15.143c0,0.851,0.076,1.724,0.227,2.592l0.393,2.262
	l-1.961,1.194c-8.191,4.989-13.084,13.687-13.084,23.266c0,15.009,12.211,27.219,27.219,27.219c4.752,0,9.438-1.25,13.551-3.615
	L953.277,576.92z"/>
<path opacity="0.2" fill="none" stroke="#0A2F66" stroke-width="1.5182" stroke-linecap="round" stroke-linejoin="round" stroke-miterlimit="10" d="
	M1081.715,387.749l0.836,0.783c2.424,2.273,5.588,3.525,8.908,3.525c3.73,0,7.291-1.607,9.768-4.408l1.012-1.145l1.156,0.998
	c1.332,1.146,3.086,1.779,4.939,1.779c1.941,0,3.699-0.697,4.824-1.914l0.459-0.498h5.541c3.877,0,7.031-3.154,7.031-7.031
	c0-3.879-3.154-7.033-7.031-7.033c-0.396,0-0.803,0.035-1.205,0.105l-1.781,0.311l-0.031-1.809c-0.088-5.281-4.457-9.578-9.74-9.578
	c-1.316,0-2.594,0.258-3.797,0.768l-1.605,0.678l-0.484-1.672c-1.523-5.283-6.43-8.971-11.932-8.971
	c-3.604,0-7.027,1.568-9.393,4.301l-0.654,0.754l-0.957-0.285c-0.646-0.191-1.316-0.291-1.992-0.291
	c-3.828,0-6.941,3.115-6.941,6.943c0,0.391,0.035,0.791,0.104,1.188l0.18,1.037l-0.898,0.547c-3.756,2.289-6,6.275-6,10.668
	c0,6.881,5.6,12.479,12.48,12.479c2.178,0,4.326-0.572,6.211-1.656L1081.715,387.749z"/>
<path opacity="0.2" fill="none" stroke="#0A2F66" stroke-width="1.1988" stroke-linecap="round" stroke-linejoin="round" stroke-miterlimit="10" d="
	M778.73,253.831l1.021,0.957c2.966,2.782,6.836,4.313,10.897,4.313c4.562,0,8.918-1.966,11.947-5.394l1.238-1.399l1.414,1.22
	c1.63,1.406,3.775,2.179,6.043,2.179c2.376,0,4.527-0.854,5.901-2.343l0.562-0.608h6.778c4.744,0,8.603-3.858,8.603-8.603
	s-3.858-8.603-8.603-8.603c-0.485,0-0.981,0.044-1.476,0.13l-2.177,0.378l-0.038-2.21c-0.107-6.461-5.453-11.719-11.915-11.719
	c-1.61,0-3.174,0.316-4.646,0.938l-1.963,0.831l-0.592-2.047c-1.865-6.461-7.867-10.973-14.596-10.973
	c-4.409,0-8.599,1.917-11.491,5.26l-0.8,0.925l-1.171-0.349c-0.79-0.236-1.609-0.357-2.437-0.357c-4.682,0-8.492,3.81-8.492,8.493
	c0,0.477,0.043,0.967,0.127,1.453l0.219,1.27l-1.098,0.669c-4.596,2.798-7.339,7.677-7.339,13.049
	c0,8.417,6.849,15.266,15.266,15.266c2.665,0,5.293-0.701,7.6-2.027L778.73,253.831z"/>
<path opacity="0.2" fill="none" stroke="#0A2F66" stroke-width="2.3003" stroke-linecap="round" stroke-linejoin="round" stroke-miterlimit="10" d="
	M140.709,109.173c-13.357,0-24.225,10.867-24.225,24.224c0,13.357,10.867,24.225,24.225,24.225h77.121
	c11.76,0,18.709-4.727,20.098-13.67c0.709-4.567-0.354-8.657-3.074-11.829c-2.928-3.422-7.631-5.463-12.574-5.463
	c-1.09,0-2.188,0.099-3.264,0.291l-4.039,0.728l0.652-4.051c0.676-4.192-0.461-8.506-3.041-11.535
	c-1.635-1.918-4.607-4.203-9.494-4.203c-2.305,0-4.801,0.517-7.416,1.533l-3.189,1.241l-0.707-3.349
	c-2.053-9.711-10.758-16.758-20.697-16.758c-10.113,0-18.846,7.194-20.768,17.11l-0.586,3.029l-2.988-0.767
	C144.779,109.429,142.75,109.173,140.709,109.173z"/>
<path opacity="0.2" fill="none" stroke="#0A2F66" stroke-width="3.3312" stroke-linecap="round" stroke-linejoin="round" stroke-miterlimit="10" d="
	M1085.297,210.556c-19.344,0-35.08,15.736-35.08,35.078c0,19.344,15.736,35.082,35.08,35.082h111.684
	c17.029,0,27.092-6.844,29.102-19.797c1.027-6.613-0.51-12.537-4.447-17.129c-4.242-4.955-11.051-7.912-18.213-7.912
	c-1.576,0-3.166,0.143-4.723,0.422l-5.852,1.053l0.945-5.865c0.979-6.072-0.668-12.318-4.406-16.705
	c-2.363-2.777-6.668-6.088-13.748-6.088c-3.338,0-6.951,0.748-10.736,2.223l-4.619,1.797l-1.027-4.85
	c-2.973-14.062-15.576-24.268-29.969-24.268c-14.646,0-27.293,10.418-30.076,24.777l-0.848,4.387l-4.328-1.109
	C1091.191,210.927,1088.252,210.556,1085.297,210.556z"/>
<path opacity="0.2" fill="none" stroke="#0A2F66" stroke-width="2.5183" stroke-linecap="round" stroke-linejoin="round" stroke-miterlimit="10" d="
	M555.926,562.5c-14.621,0-26.518,11.896-26.518,26.519s11.896,26.52,26.518,26.52h84.43c12.873,0,20.48-5.175,22-14.966
	c0.777-5-0.387-9.478-3.363-12.95c-3.207-3.745-8.354-5.98-13.766-5.98c-1.193,0-2.396,0.108-3.572,0.32l-4.424,0.797l0.715-4.436
	c0.74-4.591-0.506-9.312-3.33-12.629c-1.787-2.1-5.043-4.601-10.393-4.601c-2.525,0-5.256,0.564-8.117,1.678l-3.492,1.359
	l-0.777-3.667c-2.246-10.629-11.775-18.345-22.656-18.345c-11.07,0-20.631,7.877-22.732,18.731l-0.643,3.316l-3.273-0.84
	C560.383,562.78,558.162,562.5,555.926,562.5z"/>
<path opacity="0.2" fill="none" stroke="#0A2F66" stroke-width="1.8058" stroke-linecap="round" stroke-linejoin="round" stroke-miterlimit="10" d="
	M1420.965,209.734l2.033,2.301c4.602,5.207,11.219,8.194,18.152,8.194c6.17,0,12.051-2.327,16.557-6.552l1.553-1.456l1.846,1.061
	c3.506,2.016,7.496,3.082,11.547,3.082c12.789,0,23.193-10.405,23.193-23.194c0-8.162-4.168-15.573-11.148-19.826l-1.67-1.019
	l0.332-1.926c0.127-0.739,0.193-1.483,0.193-2.209c0-7.114-5.789-12.903-12.904-12.903c-1.254,0-2.498,0.182-3.699,0.54
	l-1.781,0.532l-1.215-1.405c-4.395-5.078-10.758-7.991-17.457-7.991c-10.225,0-19.342,6.854-22.176,16.67l-0.898,3.11l-2.984-1.262
	c-2.234-0.947-4.609-1.427-7.059-1.427c-9.818,0-17.939,7.988-18.104,17.805l-0.057,3.356l-3.307-0.573
	c-0.756-0.13-1.51-0.197-2.244-0.197c-7.207,0-13.07,5.864-13.07,13.071c0,7.209,5.863,13.072,13.07,13.072h13.705l0.855,0.956
	c1.9,2.12,4.619,3.337,7.461,3.337c2.691,0,5.217-1.055,7.113-2.967L1420.965,209.734z"/>
<path opacity="0.2" fill="none" stroke="#0A2F66" stroke-width="2.7757" stroke-linecap="round" stroke-linejoin="round" stroke-miterlimit="10" d="
	M1386.748,410.185c-12.029,0-21.814,9.785-21.814,21.814c0,1.244,0.111,2.518,0.334,3.785l0.842,4.797l-4.811,0.768
	c-17.59,2.805-30.357,17.787-30.357,35.627c0,19.895,16.188,36.084,36.084,36.084h138.498c12.029,0,21.816-9.787,21.816-21.814
	c0-10.721-7.982-19.996-18.568-21.574l-4.709-0.701l0.668-4.715c0.221-1.562,0.334-3.129,0.334-4.65
	c0-17.682-13.82-32.199-31.463-33.049l-3.605-0.174l-0.832-3.51c-3.746-15.787-17.705-26.811-33.945-26.811
	c-12.088,0-23.145,6.125-29.584,16.387l-2.629,4.193l-4.109-2.762C1395.301,411.462,1391.102,410.185,1386.748,410.185z"/>
<path opacity="0.2" fill="none" stroke="#0A2F66" stroke-width="1.1941" stroke-linecap="round" stroke-linejoin="round" stroke-miterlimit="10" d="
	M712.734,505.226l0.947,0.918c1.961,1.898,4.543,2.961,7.27,2.992c2.807,0.029,5.465-1.027,7.488-2.977l0.852-0.822l1.141,0.32
	c1.234,0.348,2.51,0.533,3.789,0.547c8.01,0.088,14.6-6.359,14.688-14.369c0.07-6.408-4.158-12.188-10.287-14.055l-1.078-0.33
	l-0.305-1.084c-1.578-5.598-6.744-9.551-12.562-9.615c-1.084-0.012-2.168,0.109-3.223,0.361l-1.496,0.357l-0.77-1.334
	c-3.039-5.264-8.697-8.574-14.764-8.641c-8.516-0.094-15.746,5.92-17.191,14.299l-0.305,1.764l-2-0.059
	c-6.463-0.07-12.127,4.674-13.174,11.041l-0.244,1.486l-1.492,0.219c-4.256,0.625-7.381,4.203-7.428,8.514
	c-0.049,4.545,3.354,8.404,7.762,8.818l30.42,0.303l0.541,0.408c1.814,1.363,3.979,2.098,6.256,2.123
	c1.352,0.016,2.676-0.225,3.936-0.711L712.734,505.226z"/>
<path opacity="0.2" fill="none" stroke="#0A2F66" stroke-width="1.2613" stroke-linecap="round" stroke-linejoin="round" stroke-miterlimit="10" d="
	M969.791,217.216l0.979,0.992c2.023,2.051,4.672,3.182,7.455,3.182c2.865,0,5.57-1.188,7.613-3.342l0.859-0.91l1.168,0.338
	c1.266,0.365,2.57,0.553,3.875,0.553c8.182,0,14.836-7.123,14.836-15.877c0-7.002-4.385-13.268-10.662-15.234l-1.104-0.346
	l-0.324-1.182c-1.674-6.098-6.992-10.355-12.934-10.355c-1.107,0-2.213,0.146-3.287,0.434l-1.523,0.41l-0.801-1.447
	c-3.162-5.717-8.977-9.266-15.17-9.266c-8.695,0-16.01,6.66-17.393,15.832l-0.291,1.928l-2.043-0.039
	c-6.6,0-12.328,5.254-13.326,12.223l-0.232,1.629l-1.521,0.256c-4.338,0.732-7.488,4.682-7.488,9.389
	c0,4.967,3.52,9.143,8.025,9.543l31.061-0.035l0.557,0.439c1.869,1.469,4.088,2.244,6.412,2.244c1.379,0,2.73-0.277,4.01-0.824
	L969.791,217.216z"/>
<path opacity="0.2" fill="none" stroke="#0A2F66" stroke-width="1.5086" stroke-linecap="round" stroke-linejoin="round" stroke-miterlimit="10" d="
	M558.695,250.364c-6.916,0-12.541,5.625-12.541,12.541s5.625,12.543,12.541,12.543h71.955c8.871,0,16.086-7.217,16.086-16.088
	c0-6.141-3.42-11.658-8.924-14.402l-1.52-0.756l0.078-1.695c0.006-0.139,0.01-0.277,0.01-0.42c0-4.932-4.012-8.945-8.943-8.945
	c-1.488,0-2.961,0.373-4.258,1.078l-2.494,1.352l-1.139-2.594c-3.059-6.967-9.947-11.469-17.547-11.469
	c-7.902,0-14.893,4.748-17.811,12.098l-0.908,2.285l-2.334-0.773c-1.484-0.49-3.029-0.74-4.588-0.74
	c-7.637,0-14.027,5.961-14.553,13.57l-0.174,2.506l-2.637-0.082C558.896,250.368,558.797,250.364,558.695,250.364z"/>
<path opacity="0.2" fill="none" stroke="#0A2F66" stroke-width="0.8288" stroke-linecap="round" stroke-linejoin="round" stroke-miterlimit="10" d="
	M262.379,50.577c-7.055,0-12.795,5.74-12.795,12.795c0,0.678,0.055,1.365,0.164,2.048l0.232,1.436l-1.439,0.209
	c-3.75,0.547-6.578,3.822-6.578,7.619c0,4.248,3.455,7.703,7.701,7.703h43.314c3.799,0,6.891-3.091,6.891-6.891
	c0-3.798-3.092-6.891-6.891-6.891c-0.164,0-0.328,0.008-0.488,0.019l-1.449,0.102l-0.08-1.451
	c-0.295-5.416-4.779-9.658-10.209-9.658c-1.672,0-3.268,0.392-4.744,1.168l-1.344,0.705l-0.627-1.384
	C271.969,53.533,267.391,50.577,262.379,50.577z"/>
<path opacity="0.2" fill="none" stroke="#0A2F66" stroke-width="0.9855" stroke-linecap="round" stroke-linejoin="round" stroke-miterlimit="10" d="
	M486.748,163.312c-7.582,0-13.75,6.168-13.75,13.75c0,0.541,0.035,1.092,0.105,1.68l0.168,1.389l-1.33,0.434
	c-4.254,1.393-7.113,5.334-7.113,9.812c0,5.691,4.631,10.32,10.322,10.32h13.441l0.432,0.291c2.789,1.879,6.049,2.871,9.426,2.871
	c3.375,0,6.635-0.992,9.424-2.871l0.432-0.291h16.018c4.271,0,7.744-3.475,7.744-7.744c0-4.17-3.26-7.568-7.424-7.738l-1.424-0.055
	l-0.195-1.412c-0.932-6.758-6.785-11.854-13.615-11.854c-0.289,0-0.602,0.012-0.959,0.037l-1.822,0.129l0.002-1.936
	c0-2.584-2.135-4.719-4.758-4.719c-1.309,0-2.527,0.52-3.434,1.465l-1.154,1.203l-1.227-1.129
	C493.512,164.603,490.207,163.312,486.748,163.312z"/>
<path opacity="0.2" fill="none" stroke="#0A2F66" stroke-width="0.6868" stroke-linecap="round" stroke-linejoin="round" stroke-miterlimit="10" d="
	M772.053,415.429c-5.283,0-9.582,4.299-9.582,9.584c0,0.377,0.023,0.76,0.074,1.17l0.117,0.967l-0.928,0.303
	c-2.965,0.971-4.957,3.719-4.957,6.838c0,3.967,3.227,7.193,7.193,7.193h9.369l0.299,0.203c1.945,1.311,4.217,2.002,6.57,2.002
	c2.352,0,4.623-0.691,6.568-2.002l0.299-0.203h11.164c2.977,0,5.398-2.422,5.398-5.398c0-2.904-2.273-5.273-5.176-5.391
	l-0.992-0.039l-0.135-0.984c-0.65-4.709-4.729-8.262-9.49-8.262c-0.201,0-0.42,0.01-0.668,0.025l-1.27,0.09l0.002-1.348
	c-0.002-1.801-1.488-3.289-3.318-3.289c-0.91,0-1.76,0.363-2.391,1.021l-0.805,0.838l-0.855-0.787
	C776.768,416.329,774.463,415.429,772.053,415.429z"/>
<path opacity="0.2" fill="none" stroke="#0A2F66" stroke-width="1.5773" stroke-linecap="round" stroke-linejoin="round" stroke-miterlimit="10" d="
	M229.061,388.46l0.986,0.934c2.041,1.934,4.711,3,7.518,3c2.891,0,5.615-1.119,7.676-3.15l0.869-0.855l1.176,0.316
	c1.277,0.344,2.59,0.52,3.908,0.52c8.248,0,14.959-6.711,14.959-14.961c0-6.598-4.42-12.5-10.75-14.354l-1.113-0.328l-0.328-1.113
	c-1.688-5.744-7.051-9.758-13.041-9.758c-1.117,0-2.23,0.139-3.314,0.408l-1.535,0.387l-0.811-1.363
	c-3.188-5.385-9.051-8.73-15.297-8.73c-8.768,0-16.145,6.273-17.537,14.918l-0.293,1.818l-2.062-0.039
	c-6.654,0-12.432,4.951-13.438,11.518l-0.234,1.535l-1.535,0.242c-4.375,0.689-7.551,4.412-7.551,8.848
	c0,4.68,3.549,8.617,8.092,8.994l31.322-0.035l0.562,0.414c1.887,1.383,4.121,2.115,6.465,2.115c1.393,0,2.754-0.262,4.045-0.775
	L229.061,388.46z"/>
<path opacity="0.2" fill="none" stroke="#0A2F66" stroke-width="2.6856" stroke-linecap="round" stroke-linejoin="round" stroke-miterlimit="10" d="
	M493.699,337.146c-20.662,0-37.471,16.809-37.471,37.471c0,1.477,0.096,2.973,0.289,4.578l0.459,3.783l-3.625,1.182
	c-11.596,3.793-19.387,14.537-19.387,26.74c0,15.508,12.621,28.125,28.133,28.125h36.629l1.176,0.793
	c7.602,5.121,16.482,7.824,25.686,7.824c9.199,0,18.082-2.703,25.682-7.824l1.176-0.793h43.65c11.639,0,21.107-9.469,21.107-21.105
	c0-11.363-8.889-20.623-20.236-21.084l-3.879-0.152l-0.529-3.846c-2.541-18.418-18.492-32.305-37.105-32.305
	c-0.787,0-1.641,0.031-2.613,0.1l-4.965,0.352l0.006-5.271c-0.002-7.045-5.818-12.861-12.969-12.861
	c-3.562,0-6.885,1.418-9.355,3.994l-3.146,3.277l-3.344-3.078C512.133,340.661,503.125,337.146,493.699,337.146z"/>
<path opacity="0.2" fill="none" stroke="#0A2F66" stroke-width="1.8058" stroke-linecap="round" stroke-linejoin="round" stroke-miterlimit="10" d="
	M315.057,551.321l2.076,1.947c6.021,5.648,13.881,8.758,22.129,8.758c9.27,0,18.113-3.992,24.266-10.953l2.512-2.842l2.875,2.477
	c3.311,2.854,7.668,4.422,12.273,4.422c4.822,0,9.191-1.732,11.984-4.756l1.139-1.234h13.766c9.635,0,17.473-7.838,17.473-17.473
	c0-9.633-7.838-17.471-17.473-17.471c-0.984,0-1.992,0.088-2.994,0.264l-4.424,0.768l-0.074-4.49
	c-0.219-13.121-11.076-23.797-24.199-23.797c-3.271,0-6.447,0.641-9.436,1.906l-3.988,1.688l-1.199-4.158
	c-3.789-13.121-15.979-22.283-29.645-22.283c-8.953,0-17.459,3.893-23.336,10.682l-1.623,1.877l-2.381-0.709
	c-1.604-0.479-3.266-0.723-4.945-0.723c-9.51,0-17.246,7.738-17.246,17.248c0,0.971,0.086,1.965,0.258,2.953l0.443,2.576
	l-2.232,1.359c-9.33,5.684-14.902,15.59-14.902,26.5c0,17.096,13.908,31.002,31.004,31.002c5.412,0,10.748-1.424,15.434-4.117
	L315.057,551.321z"/>
<path opacity="0.2" fill="none" stroke="#0A2F66" stroke-width="2.4684" stroke-linecap="round" stroke-linejoin="round" stroke-miterlimit="10" d="
	M691.494,80.579c-16.291,0-29.545,13.252-29.545,29.545c0,1.162,0.076,2.342,0.229,3.609l0.42,3.477l-3.328,1.09
	c-9.09,2.971-15.193,11.393-15.193,20.953c0,12.152,9.889,22.043,22.045,22.043h30.312l1.279,1.588
	c3.43,4.256,11.604,8.779,19.996,8.779c7.088,0,13.463-3.025,18.949-8.99l1.266-1.377h35.781c0.314,0,0.627-0.014,0.938-0.031
	l0.244-0.006h29.629c9.586,0,17.387-7.799,17.387-17.387s-7.801-17.385-17.387-17.385c-0.414,0-0.826,0.021-1.232,0.049
	l-4.318,0.303l-0.236-4.326c-0.752-13.805-12.182-24.617-26.021-24.617c-4.262,0-8.33,0.998-12.09,2.975l-5.787,3.041l-0.451-6.523
	C753.35,82.522,743.66,72.14,730.816,72.14c-7.482,0-14.834,3.779-20.699,10.643l-2.189,2.561l-2.998-1.535
	C700.746,81.665,696.227,80.579,691.494,80.579z"/>
<path fill="none" stroke="#0A3E77" stroke-width="1.2446" stroke-linecap="round" stroke-linejoin="round" stroke-dasharray="0.7928,1.6802" d="
	M77.444,578.829c38.642,35.135-23.781-206.481,99.868-286.228c65.89-42.494,182.493-0.251,182.493,99.499
	c0,49.836-67.35,20.064-31.169-15.984c54.601-54.402,88.163-161.299,243.379-41.086c50.479,39.096,112.643-36.574,75.745-33.994
	c-18.18,1.271-20.418,99.547,52.568,61.707c0,0,68.324-36.002,44.559-49.325c-16.057-9.002-26.871,36.742,0,42.329
	c63.685,13.241,90.199-72.094,180.199-95.509s96.968,71.267,67.114,53.18s44.565-52.068,152.146,13.572
	c27.878,17.01,109.329,7.914,124.853-20.696"/>
<path fill="none" stroke="#045189" stroke-width="0.6017" stroke-linecap="round" stroke-linejoin="round" d="M1293.004,284.629
	c-0.147,0.065-0.294,0.132-0.412,0.189"/>
<path fill="none" stroke="#045189" stroke-width="1.0208" stroke-linecap="round" stroke-linejoin="round" stroke-miterlimit="10" d="
	M1285.455,276.469c0,0,4.922,5.829,7.492,8.181"/>
<path fill="#FFFFFF" d="M1266.087,256.459c0,0,6.372-0.411,11.265-1.657l60.568,10.501l-29.217,25.68c0,0-10.014-1.196-13.126-2.495
	l-2.579-2.384l-15.457,7.167c0,0-1.401-14.216,0.83-25.512C1278.371,267.759,1267.68,258.718,1266.087,256.459z"/>
<path fill="#F96300" d="M1337.64,265.551l-59.269,2.208c0,0-2.734,22.03-0.468,24.843l7.448-13.928l1.174-1.089l51.395-12.282"/>
<path fill="none" stroke="#0A3E77" stroke-width="1.0286" stroke-linecap="round" stroke-linejoin="round" stroke-miterlimit="10" d="
	M1285.804,277.753c0,0,4.972,5.874,7.558,8.24"/>
<polyline fill="none" stroke="#0A3E77" stroke-width="0.909" stroke-linecap="round" stroke-linejoin="round" stroke-miterlimit="10" points="
	1278.371,267.759 1337.92,265.303 1285.804,277.753 1277.541,293.271 "/>
<path fill="none" stroke="#0A3E77" stroke-width="0.6063" stroke-linecap="round" stroke-linejoin="round" stroke-dasharray="0.9228,1.2306" d="
	M1336.388,266.012c-6.935,3.229-35.465,16.489-42.396,19.693"/>
<path fill="none" stroke="#0A3E77" stroke-width="0.6063" stroke-linecap="round" stroke-linejoin="round" d="M1293.417,285.972
	c-0.145,0.065-0.283,0.135-0.401,0.19"/>
<path fill="none" stroke="#0A2F66" stroke-width="1.5146" stroke-linecap="round" stroke-linejoin="round" stroke-miterlimit="10" d="
	M1266.087,256.459c0,0,6.372-0.411,11.265-1.657l60.568,10.501l-29.217,25.68c0,0-10.014-1.196-13.126-2.495l-2.579-2.384
	l-15.457,7.167c0,0-1.401-14.216,0.83-25.512C1278.371,267.759,1267.68,258.718,1266.087,256.459z"/>
<path opacity="0.2" fill="none" stroke="#0A2F66" stroke-width="2.847" stroke-linecap="round" stroke-linejoin="round" stroke-miterlimit="10" d="
	M625.045,80.618c16.529,0.034,30.006-13.387,30.041-29.918S641.7,20.691,625.17,20.657l-95.448-0.199
	c-14.554-0.03-23.167,5.802-24.907,16.868c-0.89,5.65,0.414,10.715,3.771,14.647c3.617,4.242,9.43,6.78,15.549,6.794
	c1.35,0.003,2.709-0.117,4.039-0.354l5.002-0.891l-0.818,5.013c-0.847,5.188,0.551,10.528,3.736,14.284
	c2.016,2.378,5.689,5.213,11.736,5.227c2.854,0.006,5.945-0.627,9.183-1.879l3.951-1.527l0.87,4.147
	c2.514,12.021,13.267,20.766,25.569,20.792c12.515,0.026,23.343-8.856,25.745-21.123l0.732-3.746l3.699,0.956
	C620.006,80.291,622.518,80.613,625.045,80.618z"/>
</svg>
